PathFileType	4	(X/Y/Z)	/Users/niels/Desktop/University/Third Semester/Perception and Action/Exam/Gymnastics Motion Tracking/Code for Gym Tracking/Analyzed Data/Webcam_Backflip/id3_1_baseline_Sports2D/id3_1_baseline_Sports2D_px_person00.trc
DataRate	CameraRate	NumFrames	NumMarkers	Units	OrigDataRate	OrigDataStartFrame	OrigNumFrames
29.80392156862745	29.80392156862745	12	22	m	29.80392156862745	95	153
Frame#	Time	Hip			RHip			RKnee			RAnkle			RBigToe			RSmallToe			RHeel			LHip			LKnee			LAnkle			LBigToe			LSmallToe			LHeel			Neck			Head			Nose			RShoulder			RElbow			RWrist			LShoulder			LElbow			LWrist		
		X1	Y1	Z1	X2	Y2	Z2	X3	Y3	Z3	X4	Y4	Z4	X5	Y5	Z5	X6	Y6	Z6	X7	Y7	Z7	X8	Y8	Z8	X9	Y9	Z9	X10	Y10	Z10	X11	Y11	Z11	X12	Y12	Z12	X13	Y13	Z13	X14	Y14	Z14	X15	Y15	Z15	X16	Y16	Z16	X17	Y17	Z17	X18	Y18	Z18	X19	Y19	Z19	X20	Y20	Z20	X21	Y21	Z21	X22	Y22	Z22
95	3.1875	1.0433024880907038	-0.5626177873228804	0.0	1.0419781345032828	-0.5621323180118145	0.0	1.0597986697185933	-0.6780851148813768	0.0	1.0448020210659592	-0.8012373699305833	0.0	1.083171389584309	-0.8184363917409123	0.0	1.071468948236899	-0.8231718195480143	0.0	1.0338164444671525	-0.8146672207409505	0.0	1.0515609323238078	-0.5619942712524799	0.0	1.0772650217037925	-0.6658712015394215	0.0	1.0251819384784309	-0.7687893101687734	0.0	1.0692039286730275	-0.7971108794757686	0.0	1.0617848975370248	-0.7916705135172913	0.0	1.0095512219992144	-0.7789401722785008	0.0	1.0847960187638894	-0.4057965731938702	0.0	1.1303594131236145	-0.3446146694031866	0.0	1.1273124489485025	-0.39183518451685373	0.0	1.0697559247720911	-0.4255136404980097	0.0	1.0387091387535805	-0.4997705316476061	0.0	1.0806678733066992	-0.5684207463569367	0.0	1.0725457212654717	-0.42186885011734887	0.0	1.0333572255108534	-0.4946841511269666	0.0	1.0657820494401269	-0.5506775158265733	0.0
96	3.2210526315789476	1.0431772680726463	-0.5611721637791163	0.0	1.0425757646292988	-0.5610349202288306	0.0	1.0606403568514464	-0.6744344783518341	0.0	1.045896839012491	-0.7979310825433574	0.0	1.0824935402850606	-0.8175882871280683	0.0	1.070511631814363	-0.8216109879913761	0.0	1.035666430165734	-0.8119001625065698	0.0	1.0493698346776328	-0.5606139186525115	0.0	1.0694631657045306	-0.6662303078281067	0.0	1.0229140840105895	-0.7711742382807985	0.0	1.0675696430419501	-0.798074085166005	0.0	1.0603984444571477	-0.7928383741360315	0.0	1.0086877592945813	-0.7822090574330786	0.0	1.0821390996940374	-0.4030871627347397	0.0	1.1267174571202014	-0.3408179073630494	0.0	1.1240031483450255	-0.38804043665755134	0.0	1.066457560269379	-0.4229734839845547	0.0	1.0340736232784191	-0.49579753413588756	0.0	1.07304348349763	-0.5649347688005318	0.0	1.0721939927494422	-0.42096315450778915	0.0	1.0404893542064981	-0.4945239933771819	0.0	1.0753916628494309	-0.5518220402825945	0.0
97	3.254605263157895	1.0426626272339126	-0.559991759355972	0.0	1.0423602926962712	-0.5603342986965093	0.0	1.0612061673681779	-0.6717935105853611	0.0	1.0469717434814456	-0.7957130314342014	0.0	1.08215607710656	-0.816670977887323	0.0	1.0700211351307825	-0.8203750996073579	0.0	1.0373906635427763	-0.8101200183018606	0.0	1.047070776977299	-0.5596187678922209	0.0	1.0618244937856656	-0.6664438819017056	0.0	1.0214513993669134	-0.7739119253153949	0.0	1.0666153762970947	-0.798941353626586	0.0	1.0593619963992504	-0.7938810738688576	0.0	1.0086251806584372	-0.7861255488337985	0.0	1.079991921403695	-0.40106588202774135	0.0	1.1241827693443016	-0.3380157777231944	0.0	1.1212221101297133	-0.3851900929449504	0.0	1.0636174438602433	-0.4207770306964793	0.0	1.0299909487972074	-0.4925823354426573	0.0	1.0649739708170738	-0.5627042522337548	0.0	1.0717893382252837	-0.4203364719833267	0.0	1.0479135611458665	-0.49487029803350185	0.0	1.0842858845346108	-0.5525557640979505	0.0
98	3.288157894736842	1.0416368255527575	-0.5590803726072202	0.0	1.041149911343804	-0.559965904593031	0.0	1.0614188916871308	-0.6699664667574659	0.0	1.047881434491629	-0.7943105299571697	0.0	1.0820711165489676	-0.8155990225871188	0.0	1.0699886702442332	-0.8192789891850903	0.0	1.0387372872064695	-0.8090861873597348	0.0	1.0448282978989194	-0.5590548617803278	0.0	1.0548385284836326	-0.666504772171479	0.0	1.0203786577363247	-0.776555129499252	0.0	1.06596784223061	-0.7996704453984295	0.0	1.058393214150309	-0.7947966207369548	0.0	1.008812232065972	-0.7899129677285419	0.0	1.0782042826067586	-0.3998699249580616	0.0	1.1226237370592922	-0.33646647093971893	0.0	1.118823047671183	-0.383585031925449	0.0	1.061046736655569	-0.41897690351835715	0.0	1.0265075130851578	-0.49020424576056226	0.0	1.0570359432260483	-0.5614255140505854	0.0	1.0712812105403968	-0.4200660567183602	0.0	1.0547598329227652	-0.49559404832603926	0.0	1.0926517407872207	-0.5527840390868889	0.0
99	3.3217105263157896	1.0399641347291453	-0.5584699090214463	0.0	1.0390183901952341	-0.5597853897112157	0.0	1.0613641159977527	-0.6686693152076555	0.0	1.0484506265251283	-0.7933462884953988	0.0	1.0824292420227761	-0.8143048695436654	0.0	1.0705634677580678	-0.818138962815362	0.0	1.039430982017252	-0.8084594165008597	0.0	1.0426426128381023	-0.5589117108395399	0.0	1.0486403532937367	-0.6664150545717867	0.0	1.0195091472489315	-0.7786429512389371	0.0	1.0657628918433661	-0.8000436824881711	0.0	1.0579412549072444	-0.795332396165311	0.0	1.009021888515975	-0.7929615039491256	0.0	1.076500662811424	-0.39959050897463416	0.0	1.1217358790704586	-0.33646501193431017	0.0	1.1165907893624683	-0.38354201610625394	0.0	1.0584519715171914	-0.4176784688289497	0.0	1.0234747503494832	-0.48872488645663814	0.0	1.0498080609084406	-0.5607188096093402	0.0	1.0706167543514904	-0.420317775716108	0.0	1.0603730842195158	-0.49663071040190343	0.0	1.1003452224881887	-0.5526612686352509	0.0
100	3.3552631578947367	1.0376659721805854	-0.5582420219743022	0.0	1.0363092862849004	-0.5597281662687648	0.0	1.0613476569102964	-0.6677122388201481	0.0	1.0485831741338905	-0.7924463031478438	0.0	1.0835583142309655	-0.8127017665333495	0.0	1.071928530239877	-0.816749603868716	0.0	1.039313822381847	-0.8078806919846284	0.0	1.0404776675453815	-0.5591715024871355	0.0	1.0432167648525874	-0.6662596644549824	0.0	1.0188180644536617	-0.7799240769696465	0.0	1.0663829711828139	-0.7999282006458847	0.0	1.0586094265126358	-0.7951924541671713	0.0	1.0092243064781166	-0.7949944480367345	0.0	1.0746295542491846	-0.4002285666773769	0.0	1.1211817810663691	-0.3382016111179	0.0	1.1143847076099627	-0.38527206913289547	0.0	1.0555311408105823	-0.41702832594714395	0.0	1.0205987057989014	-0.488158483045044	0.0	1.0437371048338495	-0.560272192894878	0.0	1.069743529171699	-0.42126007839394575	0.0	1.064363663960807	-0.49801207297866945	0.0	1.1068139148831329	-0.5524402900476313	0.0
101	3.3888157894736843	1.0349788981301802	-0.5584845080249187	0.0	1.0334459364798543	-0.5598644679367583	0.0	1.0618455049838889	-0.6669919251483853	0.0	1.048274571243602	-0.7913170309127212	0.0	1.0855131976769548	-0.8107130872633493	0.0	1.0740172527459504	-0.8149168974201371	0.0	1.0384389123405844	-0.8070109170602853	0.0	1.0383315117956646	-0.559814615034029	0.0	1.038546406822241	-0.6662073023389863	0.0	1.0182788615453364	-0.7805118642764657	0.0	1.0678824599713657	-0.7994024298591662	0.0	1.0603993092116748	-0.794392390462529	0.0	1.0093968948265533	-0.7961365206518016	0.0	1.072489601550367	-0.40168608718012866	0.0	1.120742930548239	-0.34162384703503	0.0	1.1122173949189373	-0.3886781162281972	0.0	1.0521126844362858	-0.4171542496247973	0.0	1.0175696202440283	-0.48843304641288715	0.0	1.0390028715616033	-0.5599230305450525	0.0	1.0686480013649629	-0.4229958977716813	0.0	1.0666575707769899	-0.49982535847012166	0.0	1.111469253333365	-0.552488604358258	0.0
102	3.4223684210526315	1.0322175933989497	-0.5592406290868094	0.0	1.0306889033709645	-0.5603204548169339	0.0	1.0633387494502997	-0.6664188226422064	0.0	1.0475432163579013	-0.7897740620747721	0.0	1.0878891018441443	-0.8083599936828476	0.0	1.0764177319379236	-0.8125752926299503	0.0	1.0369866096409062	-0.8055738096796985	0.0	1.0362480178271984	-0.5608213642331222	0.0	1.0345730037556424	-0.666424103066586	0.0	1.017784466230458	-0.7808187964009182	0.0	1.0698288811658279	-0.7987079638863641	0.0	1.0626414265508968	-0.7933482819846391	0.0	1.0094489191240947	-0.7968114494999374	0.0	1.0701362586839727	-0.40380749552638845	0.0	1.1203834249104678	-0.3464174679789988	0.0	1.1102116537053817	-0.3933470035646042	0.0	1.0482624040128536	-0.41805934243814385	0.0	1.0141893091913805	-0.48938835921026275	0.0	1.0354895489178757	-0.5596821622956338	0.0	1.0673854756975456	-0.4254946572836675	0.0	1.0674445234215766	-0.5021162279726534	0.0	1.1139988027020296	-0.5532531606199801	0.0
103	3.455921052631579	1.0296326429593097	-0.5605069974294085	0.0	1.0281045502485324	-0.5612144115870121	0.0	1.06607626170761	-0.6659034978317213	0.0	1.0463822114303944	-0.7877513849306605	0.0	1.0899866022147675	-0.8058261029457665	0.0	1.0785185841799658	-0.8098728343958304	0.0	1.0351027201194989	-0.8034256640692613	0.0	1.034327412267426	-0.5622081515073167	0.0	1.0312064042162874	-0.6670161496423046	0.0	1.0171954296078372	-0.7813038838248738	0.0	1.0716789233138753	-0.7981723454016133	0.0	1.0645682558606444	-0.7926067717357852	0.0	1.009291616822517	-0.7974586913854068	0.0	1.067701056034153	-0.4064306217076606	0.0	1.1201517837189863	-0.3521445895991458	0.0	1.108463498952947	-0.39878140825859454	0.0	1.0442535822546846	-0.41959002827715824	0.0	1.0104307748644272	-0.4908266849099332	0.0	1.0328657518410442	-0.559670843720839	0.0	1.0660762370583494	-0.42856534365594495	0.0	1.0670685520997638	-0.5048224766287305	0.0	1.1143700050230907	-0.5550804859942434	0.0
104	3.4894736842105263	1.0273935865498907	-0.5622429511060539	0.0	1.0257252111244552	-0.5626186421161774	0.0	1.0698788144598739	-0.6654105324964433	0.0	1.0447111483363922	-0.7852995567188561	0.0	1.0910883079409275	-0.8034121700891826	0.0	1.0796765650353577	-0.8071270071143635	0.0	1.0327701881290465	-0.8006286825640411	0.0	1.0326920826533799	-0.5640190481743896	0.0	1.028391605649736	-0.6680427312787979	0.0	1.0164146598873263	-0.7822156067504105	0.0	1.073093957228077	-0.798147962736253	0.0	1.0657442196832227	-0.7925501615724574	0.0	1.0088768202764336	-0.7982835261700223	0.0	1.0653222720154987	-0.40940012623063726	0.0	1.1200193577911424	-0.35839734309322924	0.0	1.1069311469039442	-0.40458295677316064	0.0	1.0404169237762153	-0.4215352423245222	0.0	1.0064264184363123	-0.4925646403222508	0.0	1.0306983687034033	-0.559995897809847	0.0	1.0648498947573464	-0.4319215950797763	0.0	1.0659183792744116	-0.5077899310690046	0.0	1.112677414433053	-0.5580341684459358	0.0
105	3.523026315789474	1.0255886040420228	-0.5643539725678176	0.0	1.0236403011446136	-0.5645003543734572	0.0	1.0741184707302176	-0.6650234274751684	0.0	1.042330036988245	-0.782592183151767	0.0	1.090634448124477	-0.8014319111468292	0.0	1.0792920315430516	-0.8047198387364614	0.0	1.0297716201229405	-0.7974858425609505	0.0	1.0313833154906127	-0.5662319132662154	0.0	1.0261479120776187	-0.669511652389798	0.0	1.0154142819176415	-0.7834988523092846	0.0	1.0738717978980805	-0.7988884615466485	0.0	1.0660255044033502	-0.7933076887855472	0.0	1.008126516611198	-0.7992423619863672	0.0	1.0631335896218035	-0.4125635434328218	0.0	1.1198883779209188	-0.3647908242520017	0.0	1.1054952553983675	-0.410415601703383	0.0	1.037016372380317	-0.4237261630913977	0.0	1.002429613172787	-0.4944265841909324	0.0	1.0285293765023127	-0.5606408097460823	0.0	1.0637500675884002	-0.43528720057115106	0.0	1.0643010507954906	-0.5108440098835736	0.0	1.109038011968402	-0.5618498130528572	0.0
106	3.556578947368421	1.0241927067849432	-0.5666663174475122	0.0	1.021948056785356	-0.5666872563496325	0.0	1.0778894632991467	-0.6649610374292068	0.0	1.0390062214487883	-0.7799593299581593	0.0	1.0883156427509622	-0.8001550483702825	0.0	1.076940625793067	-0.8030215231816773	0.0	1.0258492246922777	-0.7945007957480195	0.0	1.0303171240270423	-0.5686701295957068	0.0	1.0245295432888664	-0.6713309843516359	0.0	1.0142347058957657	-0.7848710163363881	0.0	1.0737598619003097	-0.800389879468956	0.0	1.0653452032199093	-0.7947845500784703	0.0	1.0069316769104764	-0.8001716849976339	0.0	1.061258549293782	-0.41577175995118393	0.0	1.1197498066155998	-0.37092244995079016	0.0	1.1041090251252736	-0.4159210842869553	0.0	1.0342097565924442	-0.42603519422402064	0.0	0.9987684079354576	-0.49622922546817855	0.0	1.025956455223021	-0.5614413513239711	0.0	1.0626933808707704	-0.43844049131628343	0.0	1.0623428351775805	-0.5138341116069084	0.0	1.1035993512210662	-0.5660743064011156	0.0
